<svg width="23" height="23" xmlns="http://www.w3.org/2000/svg" fill="none">

 <g>
  <title>Layer 1</title>
  <path id="svg_1" fill="#373737" d="m11.5,22.70149c6.3513,0 11.5,-5.1487 11.5,-11.5c0,-6.35127 -5.1487,-11.5 -11.5,-11.5c-6.35127,0 -11.5,5.14873 -11.5,11.5c0,6.3513 5.14873,11.5 11.5,11.5z"/>
  <path id="svg_2" fill="white" d="m3.28564,11.4999c0,-1.6246 0.48176,-3.21275 1.38436,-4.56358c0.9026,-1.35083 2.18549,-2.40368 3.68646,-3.0254c1.50096,-0.62172 3.15254,-0.78439 4.74604,-0.46744c1.5934,0.31695 3.057,1.09929 4.2058,2.24808c1.1488,1.14879 1.9311,2.61243 2.2481,4.20585c0.3169,1.59339 0.1543,3.24499 -0.4675,4.74599c-0.6217,1.501 -1.6745,2.7839 -3.0254,3.6865c-1.3508,0.9026 -2.9389,1.3843 -4.5636,1.3843c-2.17853,0 -4.26787,-0.8654 -5.80835,-2.4059c-1.54047,-1.5405 -2.40591,-3.6298 -2.40591,-5.8084l0,0z"/>
  <path id="svg_3" fill="#373737" d="m11.3315,3.28564c-0.0369,3.38018 -0.2423,5.27358 -1.5155,6.53036c-1.27321,1.2568 -3.15018,1.4786 -6.53036,1.5155l0,0.4929c3.38018,0.0411 5.27358,0.2587 6.53036,1.5196c1.2568,1.2609 1.4704,3.0845 1.5155,6.3702l0.4929,0c0.0452,-3.2857 0.2793,-5.1339 1.5196,-6.3702c1.2404,-1.2362 3.0845,-1.4744 6.3702,-1.5196l0,-0.4929c-3.2857,-0.0451 -5.1339,-0.2792 -6.3702,-1.5155c-1.2362,-1.23625 -1.4785,-3.15018 -1.5196,-6.53036l-0.4929,0z" clip-rule="evenodd" fill-rule="evenodd"/>
 </g>
</svg>