<svg width="23" height="23" viewBox="0 0 23 23" fill="none" xmlns="http://www.w3.org/2000/svg">
<path d="M11.5 23C17.8513 23 23 17.8513 23 11.5C23 5.14873 17.8513 0 11.5 0C5.14873 0 0 5.14873 0 11.5C0 17.8513 5.14873 23 11.5 23Z" fill="#4D4D4D"/>
<path d="M3.28564 11.5C3.28564 9.87536 3.7674 8.28722 4.67 6.93638C5.5726 5.58555 6.85549 4.5327 8.35646 3.91098C9.85742 3.28926 11.509 3.12659 13.1025 3.44354C14.6959 3.76049 16.1595 4.54283 17.3083 5.69162C18.4571 6.84041 19.2394 8.30405 19.5564 9.89747C19.8733 11.4909 19.7107 13.1425 19.0889 14.6435C18.4672 16.1444 17.4144 17.4273 16.0635 18.3299C14.7127 19.2325 13.1246 19.7143 11.4999 19.7143C9.32137 19.7143 7.23203 18.8489 5.69155 17.3084C4.15108 15.7679 3.28564 13.6786 3.28564 11.5Z" fill="white"/>
<path fill-rule="evenodd" clip-rule="evenodd" d="M11.3315 3.28571C11.2946 6.66588 11.0892 8.55928 9.816 9.81606C8.54279 11.0728 6.66582 11.2946 3.28564 11.3316V11.8245C6.66582 11.8655 8.55922 12.0832 9.816 13.3441C11.0728 14.605 11.2864 16.4286 11.3315 19.7143H11.8244C11.8696 16.4286 12.1037 14.5803 13.344 13.3441C14.5844 12.1078 16.4285 11.8696 19.7142 11.8245V11.3316C16.4285 11.2864 14.5803 11.0523 13.344 9.81606C12.1078 8.57981 11.8655 6.66588 11.8244 3.28571H11.3315Z" fill="#4C4C4C"/>
</svg>
