<svg width="23" height="23" xmlns="http://www.w3.org/2000/svg" fill="none">

 <g>
  <title>Layer 1</title>
  <path id="svg_1" fill="#373737" d="m11.5,23c6.3513,0 11.5,-5.1487 11.5,-11.5c0,-6.35127 -5.1487,-11.5 -11.5,-11.5c-6.35127,0 -11.5,5.14873 -11.5,11.5c0,6.3513 5.14873,11.5 11.5,11.5z"/>
  <path id="svg_2" fill="white" d="m11.4999,11.722c0.6701,-0.0041 1.324,-0.2065 1.8792,-0.5817c0.5552,-0.3753 0.9868,-0.9065 1.2404,-1.52676c0.2537,-0.62025 0.3179,-1.30171 0.1847,-1.95843c-0.1332,-0.65672 -0.4579,-1.25929 -0.9332,-1.73168c-0.4752,-0.4724 -1.0797,-0.79347 -1.7373,-0.92272c-0.6575,-0.12924 -1.3385,-0.06087 -1.9572,0.19649c-0.61874,0.25736 -1.14737,0.69219 -1.51924,1.24963c-0.37187,0.55744 -0.57033,1.21252 -0.57035,1.88262c0.00054,0.44709 0.08934,0.88967 0.2613,1.30237c0.17196,0.41268 0.42371,0.78738 0.7408,1.10258c0.31709,0.3152 0.69329,0.5646 1.10699,0.7341c0.4138,0.1695 0.8569,0.2556 1.3039,0.2535l0,0zm0,-4.79308c0.277,0 0.5478,0.08213 0.7781,0.23603c0.2304,0.15389 0.4099,0.37262 0.5159,0.62854c0.106,0.25591 0.1337,0.53751 0.0797,0.80919c-0.0541,0.27168 -0.1875,0.52123 -0.3833,0.7171c-0.1959,0.19587 -0.4454,0.32925 -0.7171,0.38329c-0.2717,0.05404 -0.5533,0.02631 -0.8092,-0.07969c-0.2559,-0.10601 -0.4747,-0.28552 -0.6286,-0.51583c-0.1538,-0.23032 -0.236,-0.5011 -0.236,-0.7781c-0.0033,-0.18484 0.0306,-0.36846 0.0998,-0.53989c0.0692,-0.17143 0.1723,-0.32716 0.303,-0.45788c0.1307,-0.13072 0.2864,-0.23376 0.4579,-0.30296c0.1714,-0.0692 0.355,-0.10315 0.5398,-0.0998z"/>
  <path id="svg_3" fill="white" d="m12.8759,14.5023c0.6968,-0.1626 1.3617,-0.4402 1.9673,-0.8215c0.1105,-0.0703 0.2062,-0.1618 0.2814,-0.2692c0.0752,-0.1073 0.1285,-0.2284 0.157,-0.3564c0.0284,-0.1279 0.0313,-0.2602 0.0086,-0.3893c-0.0227,-0.1291 -0.0707,-0.2524 -0.141,-0.363c-0.0704,-0.1106 -0.1619,-0.2062 -0.2692,-0.2814c-0.1074,-0.0752 -0.2285,-0.1286 -0.3564,-0.157c-0.128,-0.0284 -0.2603,-0.0313 -0.3894,-0.0086c-0.1291,0.0227 -0.2524,0.0706 -0.363,0.141c-0.6852,0.4288 -1.4773,0.6563 -2.2856,0.6563c-0.8084,0 -1.60041,-0.2275 -2.28564,-0.6563c-0.10916,-0.0781 -0.23319,-0.1331 -0.36443,-0.1614c-0.13123,-0.0283 -0.26688,-0.0293 -0.39855,-0.0031c-0.13167,0.0262 -0.25656,0.0791 -0.36696,0.1555c-0.1104,0.0764 -0.20395,0.1746 -0.27488,0.2886c-0.07093,0.114 -0.11772,0.2413 -0.13748,0.3741c-0.01976,0.1328 -0.01207,0.2682 0.02259,0.3979c0.03467,0.1297 0.09557,0.2509 0.17894,0.3562c0.08337,0.1052 0.18744,0.1922 0.30577,0.2556c0.60737,0.3806 1.2735,0.6582 1.97144,0.8214l-1.88929,1.8893c-0.09203,0.0919 -0.16503,0.2011 -0.21483,0.3213c-0.04981,0.1201 -0.07545,0.2489 -0.07545,0.379c0,0.1301 0.02564,0.2589 0.07545,0.379c0.0498,0.1202 0.1228,0.2293 0.21483,0.3213c0.09301,0.0929 0.20397,0.166 0.32612,0.2147c0.12216,0.0487 0.25295,0.0721 0.38441,0.0686c0.26387,-0.0026 0.51724,-0.1037 0.71054,-0.2833l1.86872,-1.8688l1.8688,1.8688c0.1857,0.1857 0.4376,0.29 0.7002,0.29c0.2627,0 0.5146,-0.1043 0.7003,-0.29c0.1857,-0.1858 0.2901,-0.4377 0.2901,-0.7003c0,-0.2627 -0.1044,-0.5146 -0.2901,-0.7003l-1.9303,-1.8687z"/>
 </g>
</svg>