<svg width="23" height="23" viewBox="0 0 23 23" fill="none" xmlns="http://www.w3.org/2000/svg">
<path d="M11.5 23C17.8513 23 23 17.8513 23 11.5C23 5.14873 17.8513 0 11.5 0C5.14873 0 0 5.14873 0 11.5C0 17.8513 5.14873 23 11.5 23Z" fill="#F6921E"/>
<path d="M11.4999 11.7218C12.17 11.7177 12.8239 11.5153 13.3791 11.1401C13.9343 10.7648 14.3659 10.2336 14.6195 9.61335C14.8732 8.99311 14.9374 8.31165 14.8042 7.65492C14.671 6.9982 14.3463 6.39564 13.871 5.92324C13.3958 5.45085 12.7913 5.12977 12.1337 5.00053C11.4762 4.87129 10.7952 4.93966 10.1765 5.19702C9.55776 5.45438 9.02913 5.88921 8.65726 6.44665C8.28539 7.00409 8.08693 7.65917 8.08691 8.32927C8.08745 8.77636 8.17625 9.21894 8.34821 9.63164C8.52017 10.0443 8.77192 10.419 9.08901 10.7342C9.4061 11.0494 9.7823 11.2989 10.196 11.4683C10.6098 11.6378 11.0529 11.7239 11.4999 11.7218ZM11.4999 6.92873C11.7769 6.92873 12.0477 7.01087 12.278 7.16476C12.5084 7.31866 12.6879 7.53739 12.7939 7.79331C12.8999 8.04922 12.9276 8.33082 12.8736 8.6025C12.8195 8.87418 12.6861 9.12373 12.4903 9.3196C12.2944 9.51546 12.0449 9.64885 11.7732 9.70289C11.5015 9.75693 11.2199 9.7292 10.964 9.62319C10.7081 9.51719 10.4893 9.33768 10.3354 9.10736C10.1816 8.87705 10.0994 8.60627 10.0994 8.32927C10.0961 8.14443 10.13 7.96081 10.1992 7.78938C10.2684 7.61795 10.3715 7.46222 10.5022 7.3315C10.6329 7.20077 10.7886 7.09773 10.9601 7.02853C11.1315 6.95933 11.3151 6.92539 11.4999 6.92873Z" fill="white"/>
<path d="M12.8759 14.5023C13.5727 14.3398 14.2376 14.0622 14.8432 13.6809C14.9537 13.6105 15.0494 13.519 15.1246 13.4117C15.1998 13.3044 15.2531 13.1833 15.2815 13.0553C15.31 12.9273 15.3129 12.795 15.2902 12.666C15.2675 12.5369 15.2195 12.4135 15.1492 12.303C15.0788 12.1924 14.9873 12.0968 14.88 12.0216C14.7726 11.9463 14.6515 11.893 14.5236 11.8646C14.3956 11.8362 14.2633 11.8332 14.1342 11.856C14.0051 11.8787 13.8818 11.9266 13.7712 11.997C13.086 12.4258 12.2939 12.6532 11.4856 12.6532C10.6772 12.6532 9.88519 12.4258 9.19996 11.997C9.0908 11.9188 8.96677 11.8639 8.83553 11.8356C8.7043 11.8073 8.56865 11.8062 8.43698 11.8324C8.30531 11.8586 8.18042 11.9116 8.07002 11.988C7.95962 12.0643 7.86607 12.1626 7.79514 12.2766C7.72421 12.3905 7.67742 12.5179 7.65766 12.6507C7.6379 12.7835 7.64559 12.9189 7.68025 13.0486C7.71492 13.1783 7.77582 13.2995 7.85919 13.4047C7.94256 13.51 8.04663 13.597 8.16496 13.6604C8.77233 14.041 9.43846 14.3185 10.1364 14.4818L8.24711 16.3711C8.15508 16.463 8.08208 16.5722 8.03228 16.6923C7.98247 16.8125 7.95683 16.9413 7.95683 17.0713C7.95683 17.2014 7.98247 17.3302 8.03228 17.4504C8.08208 17.5705 8.15508 17.6797 8.24711 17.7716C8.34012 17.8646 8.45108 17.9377 8.57323 17.9864C8.69539 18.0351 8.82618 18.0584 8.95764 18.055C9.22151 18.0523 9.47488 17.9513 9.66818 17.7716L11.5369 15.9029L13.4057 17.7716C13.5914 17.9573 13.8433 18.0617 14.1059 18.0617C14.3686 18.0617 14.6205 17.9573 14.8062 17.7716C14.9919 17.5859 15.0963 17.334 15.0963 17.0713C15.0963 16.8087 14.9919 16.5568 14.8062 16.3711L12.8759 14.5023Z" fill="white"/>
</svg>
