<svg width="23" height="23" xmlns="http://www.w3.org/2000/svg" fill="none">

 <g>
  <title>Layer 1</title>
  <path id="svg_1" fill="#373737" d="m11.5,23c6.3513,0 11.5,-5.1487 11.5,-11.5c0,-6.35127 -5.1487,-11.5 -11.5,-11.5c-6.35127,0 -11.5,5.14873 -11.5,11.5c0,6.3513 5.14873,11.5 11.5,11.5z"/>
  <path id="svg_2" fill="white" d="m17.1596,7.36831l-2.0001,9.44639c-0.152,0.6654 -0.5422,0.8215 -1.1049,0.5175l-3.0475,-2.2589l-1.47031,1.4129c-0.07117,0.0946 -0.1637,0.1711 -0.27005,0.2232c-0.10635,0.0521 -0.2235,0.0784 -0.34191,0.0766l0.22178,-3.105l5.63909,-5.10108c0.2464,-0.22178 -0.0534,-0.34089 -0.3819,-0.12321l-6.98219,4.39879l-2.99821,-0.9447c-0.65714,-0.2053 -0.66536,-0.6571 0.13553,-0.9693l11.75877,-4.51783c0.5421,-0.21357 1.0186,0.1109 0.8419,0.94464z"/>
 </g>
</svg>