<svg width="23" height="23" viewBox="0 0 23 23" fill="none" xmlns="http://www.w3.org/2000/svg">
<path d="M11.5 23C17.8513 23 23 17.8513 23 11.5C23 5.14873 17.8513 0 11.5 0C5.14873 0 0 5.14873 0 11.5C0 17.8513 5.14873 23 11.5 23Z" fill="#1DA1F2"/>
<path d="M17.1596 7.36819L15.1595 16.8146C15.0075 17.48 14.6173 17.636 14.0546 17.3321L11.0071 15.0732L9.53679 16.486C9.46562 16.5807 9.37309 16.6572 9.26674 16.7093C9.16039 16.7614 9.04324 16.7876 8.92483 16.7859L9.14661 13.6809L14.7857 8.5798C15.0321 8.35801 14.7323 8.23891 14.4038 8.45659L7.42161 12.8553L4.4234 11.9107C3.76626 11.7053 3.75804 11.2535 4.55893 10.9414L16.3177 6.42355C16.8598 6.20998 17.3363 6.53444 17.1596 7.36819Z" fill="white"/>
</svg>
