<svg width="23" height="23" viewBox="0 0 23 23" fill="none" xmlns="http://www.w3.org/2000/svg">
<path d="M11.5 23C17.8513 23 23 17.8513 23 11.5C23 5.14873 17.8513 0 11.5 0C5.14873 0 0 5.14873 0 11.5C0 17.8513 5.14873 23 11.5 23Z" fill="#373737"/>
<path d="M16.3013 10.6252C15.3158 10.6278 14.3545 10.3203 13.5536 9.74622V13.5043C13.5536 14.1819 13.3526 14.8443 12.976 15.4077C12.5995 15.9711 12.0643 16.4101 11.4381 16.6693C10.812 16.9284 10.123 16.996 9.45847 16.8635C8.79391 16.731 8.18357 16.4044 7.70469 15.9249C7.22581 15.4454 6.8999 14.8347 6.7682 14.17C6.6365 13.5053 6.70492 12.8164 6.9648 12.1906C7.22469 11.5648 7.66437 11.0301 8.2282 10.6542C8.79204 10.2783 9.4547 10.0781 10.1323 10.0789C10.2834 10.0783 10.4344 10.0879 10.5841 10.1077V11.9559C10.2771 11.8649 9.95007 11.867 9.64429 11.962C9.33852 12.0569 9.06779 12.2405 8.86636 12.4894C8.66494 12.7383 8.54188 13.0413 8.51275 13.3602C8.48363 13.679 8.54975 13.9994 8.70275 14.2806C8.85575 14.5619 9.08875 14.7914 9.37226 14.9402C9.65577 15.089 9.97705 15.1504 10.2954 15.1165C10.6138 15.0826 10.915 14.9551 11.1609 14.75C11.4067 14.5449 11.5862 14.2714 11.6766 13.9643C11.7211 13.815 11.7433 13.66 11.7423 13.5043V6.06622H13.644C13.644 6.77099 13.9239 7.44689 14.4223 7.94523C14.9206 8.44358 15.5965 8.72354 16.3013 8.72354V10.6252Z" fill="white"/>
</svg>
