<svg width="23" height="23" xmlns="http://www.w3.org/2000/svg" fill="none">

 <g>
  <title>Layer 1</title>
  <path id="svg_1" fill="#373737" d="m11.5,23c6.3513,0 11.5,-5.1487 11.5,-11.5c0,-6.35127 -5.1487,-11.5 -11.5,-11.5c-6.35127,0 -11.5,5.14873 -11.5,11.5c0,6.3513 5.14873,11.5 11.5,11.5z"/>
  <path id="svg_2" fill="white" d="m4.99815,7.29838l1.64286,0c0.09784,0.0019 0.19267,0.03413 0.2714,0.09226c0.07872,0.05812 0.13745,0.13926 0.16806,0.23221c0.3184,0.9783 0.72247,1.92662 1.2075,2.83395c0.71875,1.1828 1.18286,1.6223 1.48679,1.5771c0.30394,-0.0452 0.20946,-0.8584 0.20946,-1.4868c0,-0.62836 0.06978,-1.69211 -0.2341,-2.18086l-0.46411,-0.67357c-0.02615,-0.03422 -0.04217,-0.07509 -0.04623,-0.11797c-0.00406,-0.04287 0.004,-0.08602 0.02326,-0.12454c0.01926,-0.03852 0.04895,-0.07086 0.08568,-0.09334c0.03674,-0.02247 0.07905,-0.03418 0.12211,-0.0338l2.64907,0c0.0629,-0.00057 0.1253,0.01153 0.1834,0.03558c0.0581,0.02405 0.1107,0.05956 0.1548,0.10441c0.0441,0.04485 0.0787,0.09812 0.1017,0.15663c0.0231,0.05851 0.0341,0.12106 0.0325,0.18392l0,3.36374c0,0 0.115,0.6038 0.7639,0c0.7906,-0.8866 1.4403,-1.88954 1.9262,-2.97356l0.2341,-0.55446c0.0337,-0.08159 0.0906,-0.15152 0.1636,-0.20115c0.073,-0.04963 0.1589,-0.0768 0.2472,-0.07814l1.7332,0c0.075,-0.00063 0.1491,0.01696 0.2159,0.05126c0.0668,0.03431 0.1242,0.08429 0.1675,0.14568c0.0432,0.06138 0.0709,0.13234 0.0806,0.20677c0.0098,0.07443 0.0013,0.15012 -0.0246,0.22058l-0.1848,0.48874c-0.3754,0.74086 -0.8022,1.45451 -1.2773,2.13568c-0.6489,0.9036 -0.7886,1.1131 -0.6982,1.3472c0.0903,0.2341 1.7661,1.7866 2.185,2.53c0.115,0.2094 0.2094,0.4107 0.2998,0.5544c0.0366,0.072 0.0545,0.152 0.0521,0.2327c-0.0025,0.0806 -0.0252,0.1594 -0.0661,0.229c-0.041,0.0696 -0.0988,0.1277 -0.1681,0.1691c-0.0693,0.0413 -0.1479,0.0645 -0.2286,0.0675l-1.9632,0c-0.0835,0.0032 -0.1662,-0.0171 -0.2388,-0.0585c-0.0726,-0.0413 -0.1321,-0.1022 -0.1719,-0.1756l-0.189,-0.2999c-0.5625,-0.6914 -1.1988,-1.3194 -1.8975,-1.8728c-0.7434,-0.4107 -0.7187,0.1889 -0.7187,0.1889l0,1.2321c-0.0011,0.2448 -0.0988,0.4792 -0.2719,0.6523c-0.173,0.1731 -0.4075,0.2708 -0.6522,0.2719l-0.4559,0c0,0 -2.55466,0 -4.59591,-3.0393c-1.60179,-2.3699 -2.13572,-3.90182 -2.34107,-4.78075c-0.01142,-0.06931 -0.0075,-0.14029 0.01149,-0.20792c0.01898,-0.06764 0.05256,-0.13029 0.09837,-0.18354c0.04582,-0.05326 0.10275,-0.09582 0.16679,-0.12469c0.06405,-0.02887 0.13364,-0.04335 0.20388,-0.04242l0,0z"/>
 </g>
</svg>