<svg width="23" height="23" viewBox="0 0 23 23" fill="none" xmlns="http://www.w3.org/2000/svg">
<path d="M11.5 23C17.8513 23 23 17.8513 23 11.5C23 5.14873 17.8513 0 11.5 0C5.14873 0 0 5.14873 0 11.5C0 17.8513 5.14873 23 11.5 23Z" fill="#4680C2"/>
<path d="M4.9984 7.29838H6.64125C6.73909 7.30028 6.83393 7.33251 6.91265 7.39064C6.99137 7.44876 7.0501 7.5299 7.08072 7.62285C7.39911 8.60115 7.80318 9.54947 8.28822 10.4568C9.00697 11.6396 9.47107 12.0791 9.775 12.0339C10.0789 11.9887 9.98447 11.1755 9.98447 10.5471C9.98447 9.91874 10.0543 8.85499 9.75036 8.36624L9.28625 7.69267C9.2601 7.65845 9.24409 7.61758 9.24003 7.5747C9.23597 7.53183 9.24402 7.48868 9.26328 7.45016C9.28254 7.41164 9.31223 7.3793 9.34897 7.35682C9.3857 7.33435 9.42801 7.32264 9.47107 7.32302H12.1202C12.1831 7.32245 12.2454 7.33455 12.3035 7.3586C12.3616 7.38265 12.4143 7.41816 12.4584 7.46301C12.5025 7.50786 12.537 7.56113 12.5601 7.61964C12.5831 7.67815 12.5942 7.7407 12.5925 7.80356V11.1673C12.5925 11.1673 12.7075 11.7711 13.3564 11.1673C14.1471 10.2807 14.7967 9.27776 15.2827 8.19374L15.5168 7.63928C15.5505 7.55769 15.6073 7.48776 15.6803 7.43813C15.7533 7.3885 15.8392 7.36133 15.9275 7.35999H17.6607C17.7358 7.35936 17.8099 7.37695 17.8767 7.41125C17.9434 7.44556 18.0009 7.49554 18.0441 7.55693C18.0873 7.61831 18.115 7.68927 18.1248 7.7637C18.1345 7.83813 18.1261 7.91382 18.1002 7.98428L17.9154 8.47302C17.54 9.21388 17.1132 9.92753 16.638 10.6087C15.9891 11.5123 15.8495 11.7218 15.9398 11.9559C16.0302 12.19 17.7059 13.7425 18.1248 14.4859C18.2398 14.6953 18.3343 14.8966 18.4246 15.0403C18.4613 15.1123 18.4792 15.1923 18.4767 15.273C18.4743 15.3536 18.4515 15.4324 18.4106 15.502C18.3697 15.5716 18.3119 15.6297 18.2425 15.6711C18.1732 15.7124 18.0946 15.7356 18.0139 15.7386H16.0507C15.9672 15.7417 15.8845 15.7215 15.8119 15.6801C15.7394 15.6388 15.6798 15.5779 15.64 15.5045L15.4511 15.2046C14.8885 14.5132 14.2523 13.8852 13.5536 13.3318C12.8102 12.9211 12.8348 13.5207 12.8348 13.5207V14.7528C12.8337 14.9976 12.736 15.232 12.563 15.4051C12.3899 15.5782 12.1555 15.6759 11.9107 15.677H11.4548C11.4548 15.677 8.90018 15.677 6.85893 12.6377C5.25715 10.2678 4.72322 8.73588 4.51786 7.85695C4.50645 7.78764 4.51037 7.71666 4.52935 7.64903C4.54833 7.58139 4.58191 7.51874 4.62773 7.46549C4.67354 7.41223 4.73048 7.36967 4.79452 7.3408C4.85856 7.31193 4.92815 7.29745 4.9984 7.29838Z" fill="white"/>
</svg>
