<svg width="23" height="23" xmlns="http://www.w3.org/2000/svg" fill="none">

 <g>
  <title>Layer 1</title>
  <path id="svg_1" fill="#373737" d="m11.5,23c6.3513,0 11.5,-5.1487 11.5,-11.5c0,-6.35127 -5.1487,-11.5 -11.5,-11.5c-6.35127,0 -11.5,5.14873 -11.5,11.5c0,6.3513 5.14873,11.5 11.5,11.5z"/>
  <path id="svg_2" fill="white" d="m17.9071,8.42768c-0.0734,-0.27044 -0.2162,-0.51698 -0.4144,-0.71512c-0.1981,-0.19814 -0.4447,-0.34099 -0.7151,-0.41435c-0.998,-0.26696 -4.9861,-0.26696 -4.9861,-0.26696c0,0 -3.99211,0 -4.98604,0.26696c-0.27062,0.07299 -0.51736,0.21571 -0.71556,0.41391c-0.1982,0.19819 -0.34092,0.44493 -0.4139,0.71556c-0.18421,1.01353 -0.27358,2.04202 -0.26697,3.07212c-0.00661,1.0301 0.08276,2.0586 0.26697,3.0722c0.07298,0.2706 0.2157,0.5173 0.4139,0.7155c0.1982,0.1982 0.44494,0.3409 0.71556,0.4139c0.99393,0.267 4.98604,0.267 4.98604,0.267c0,0 3.9881,0 4.9861,-0.267c0.2704,-0.0733 0.517,-0.2162 0.7151,-0.4143c0.1982,-0.1982 0.341,-0.4447 0.4144,-0.7151c0.1814,-1.0139 0.2693,-2.0422 0.2628,-3.0722c0.0065,-1.0299 -0.0814,-2.05827 -0.2628,-3.07212l0,0zm-7.3929,4.98602l0,-3.82781l3.3145,1.91391l-3.3145,1.9139z" clip-rule="evenodd" fill-rule="evenodd"/>
 </g>
</svg>