<svg width="23" height="23" viewBox="0 0 23 23" fill="none" xmlns="http://www.w3.org/2000/svg">
<path d="M11.5 23C17.8513 23 23 17.8513 23 11.5C23 5.14873 17.8513 0 11.5 0C5.14873 0 0 5.14873 0 11.5C0 17.8513 5.14873 23 11.5 23Z" fill="#E81D25"/>
<path fill-rule="evenodd" clip-rule="evenodd" d="M17.9071 8.42786C17.8337 8.15742 17.6909 7.91088 17.4927 7.71274C17.2946 7.5146 17.048 7.37176 16.7776 7.2984C15.7796 7.03143 11.7915 7.03143 11.7915 7.03143C11.7915 7.03143 7.79939 7.03143 6.80546 7.2984C6.53484 7.37138 6.2881 7.5141 6.0899 7.7123C5.8917 7.9105 5.74898 8.15723 5.676 8.42786C5.49179 9.4414 5.40242 10.4699 5.40903 11.5C5.40242 12.5301 5.49179 13.5586 5.676 14.5721C5.74898 14.8428 5.8917 15.0895 6.0899 15.2877C6.2881 15.4859 6.53484 15.6286 6.80546 15.7016C7.79939 15.9686 11.7915 15.9686 11.7915 15.9686C11.7915 15.9686 15.7796 15.9686 16.7776 15.7016C17.048 15.6283 17.2946 15.4854 17.4927 15.2873C17.6909 15.0891 17.8337 14.8426 17.9071 14.5721C18.0885 13.5583 18.1764 12.5299 18.1699 11.5C18.1764 10.4701 18.0885 9.44172 17.9071 8.42786ZM10.5142 13.4139V9.58608L13.8287 11.5L10.5142 13.4139Z" fill="white"/>
</svg>
