<?xml version="1.0" standalone="no"?>
<!DOCTYPE svg PUBLIC "-//W3C//DTD SVG 20010904//EN"
 "http://www.w3.org/TR/2001/REC-SVG-20010904/DTD/svg10.dtd">
<svg version="1.0" xmlns="http://www.w3.org/2000/svg"
 width="219.000000pt" height="219.000000pt" viewBox="0 0 219.000000 219.000000"
 preserveAspectRatio="xMidYMid meet">
<metadata>
Created by potrace 1.14, written by Peter Selinger 2001-2017
</metadata>
<g transform="translate(0.000000,219.000000) scale(0.100000,-0.100000)"
fill="#000000" stroke="none">
<path d="M899 2184 c-24 -7 -49 -59 -55 -111 -18 -158 -90 -309 -200 -419 -24
-24 -57 -52 -72 -61 -129 -84 -262 -252 -325 -413 -60 -153 -75 -370 -37 -528
63 -264 243 -482 497 -603 56 -26 67 -29 101 -19 21 5 47 19 58 31 19 22 27
89 14 124 -12 31 -22 195 -13 195 5 0 17 -14 27 -32 72 -120 265 -285 391
-334 42 -15 46 -15 108 5 83 28 212 103 286 166 151 130 269 342 300 540 8 55
7 209 -2 271 -18 132 -85 286 -174 402 -68 89 -102 115 -154 115 -46 0 -68
-17 -105 -82 -29 -49 -79 -111 -100 -124 -10 -5 -11 0 -7 20 22 113 -9 318
-68 451 -63 140 -168 267 -295 358 -52 37 -75 48 -112 50 -26 1 -54 1 -63 -2z
m173 -324 c76 -92 133 -212 154 -324 20 -107 -7 -289 -56 -386 -27 -52 -30
-81 -15 -117 14 -33 59 -63 94 -63 71 0 246 98 345 193 80 77 77 77 121 -18
47 -101 59 -163 59 -290 -1 -102 -5 -132 -27 -200 -59 -180 -180 -321 -345
-404 l-64 -32 -55 33 c-103 62 -213 189 -263 301 -16 36 -35 107 -54 198 -18
85 -136 110 -186 39 -61 -85 -111 -245 -125 -394 -3 -33 -7 -61 -8 -63 -6 -5
-75 66 -115 119 -89 116 -135 258 -135 408 1 212 96 406 263 535 84 65 198
178 238 236 41 60 96 172 113 227 6 23 16 42 20 42 4 0 22 -18 41 -40z"/>
</g>
</svg>
