<svg width="24" height="24" xmlns="http://www.w3.org/2000/svg" enable-background="new 0 0 26 26" version="1.1" xml:space="preserve">
 <g>
  <title>Layer 1</title>
  <g id="svg_1">
   <path d="m17.30531,14.31256c-0.37011,0 -0.60546,0.15821 -0.73828,0.29102l-1.4834,1.48437c-0.01171,0.01172 -0.07519,0.04297 -0.22168,0.04297c-0.81738,0 -2.55273,-0.90918 -4.28906,-2.64648c-2.33398,-2.33301 -2.84863,-4.26563 -2.60351,-4.51074l1.48437,-1.4834c0.97852,-0.97852 -0.75293,-3.00196 -1.87207,-4.1211c-0.50781,-0.50781 -2.25098,-2.16308 -3.38183,-2.16308c-0.37012,0 -0.60547,0.1582 -0.73829,0.29101l-2.96875,2.96875c-0.89062,0.89063 -0.57324,2.62012 0.94532,5.13965c1.31054,2.17578 3.38281,4.72461 5.83593,7.17774c3.62207,3.62207 8.42188,7.27734 10.9795,7.27734l0.00097,0c0.69532,0 1.11133,-0.26953 1.33692,-0.49609l2.96875,-2.96875c0.97851,-0.97754 -0.75293,-3.00098 -1.87207,-4.12012c-0.50782,-0.50781 -2.25098,-2.16309 -3.38282,-2.16309zm1.22559,8.19141c-0.02148,0.02148 -0.10352,0.05664 -0.27734,0.05664c-1.49317,0 -5.47754,-2.39648 -9.91895,-6.83789c-2.36914,-2.36914 -4.3623,-4.81641 -5.6123,-6.89063c-1.39649,-2.31933 -1.27735,-3.19726 -1.16895,-3.30566l2.77637,-2.77637c0.37012,0.15137 1.19922,0.6875 2.1914,1.67969c0.99317,0.99316 1.52832,1.82227 1.67969,2.19141l-1.29199,1.29199c-1.38379,1.38574 0.37988,4.40918 2.60352,6.63184c1.90234,1.90332 3.95214,3.08593 5.3496,3.08593c0.66016,0 1.06153,-0.26172 1.28223,-0.48242l1.29199,-1.29199c0.36914,0.15137 1.19825,0.68652 2.19141,1.67969c0.99219,0.99316 1.52832,1.82129 1.67969,2.1914l-2.77637,2.77637z" fill="#ffffff" id="svg_2"/>
   <path d="m21.46352,2.59381c-1.63282,-1.63379 -3.80664,-2.5332 -6.12012,-2.5332c-0.00098,0 -0.00195,0 -0.00195,0c-0.41407,0 -0.75,0.33594 -0.75,0.75s0.33593,0.75 0.75,0.75c0.00097,0 0.00097,0 0.00195,0c1.91309,0 3.70996,0.74316 5.05957,2.09375c1.35059,1.35059 2.09375,3.14746 2.09375,5.06152c0,0.41407 0.33594,0.75 0.75,0.75s0.75,-0.33593 0.75,-0.75c0.00098,-2.31445 -0.89941,-4.48828 -2.5332,-6.12207z" fill="#ffffff" id="svg_3"/>
   <path d="m14.35219,4.52643c0.00098,0 0.00098,0 0.00195,0c1.38477,0 2.68457,0.53809 3.66211,1.51465c0.97656,0.97754 1.51465,2.27832 1.51465,3.66406c0,0.41406 0.33594,0.75 0.75,0.75s0.75,-0.33594 0.75,-0.75c0.00098,-1.78613 -0.69336,-3.46387 -1.9541,-4.72461c-1.26074,-1.25976 -2.9375,-1.9541 -4.72266,-1.9541c-0.00097,0 -0.00195,0 -0.00195,0c-0.41406,0 -0.75,0.33594 -0.75,0.75s0.33594,0.75 0.75,0.75z" fill="#ffffff" id="svg_4"/>
   <path d="m13.36293,7.49225c0.00098,0 0.00098,0 0.00195,0c0.85547,0 1.66016,0.33301 2.26368,0.93652c0.60449,0.6045 0.93652,1.40918 0.93652,2.26563c0,0.41406 0.33594,0.75 0.75,0.75s0.75,-0.33594 0.75,-0.75c0.00098,-1.25684 -0.48828,-2.43848 -1.37598,-3.32617c-0.88672,-0.8877 -2.06738,-1.37598 -3.32422,-1.37598c-0.00097,0 -0.00195,0 -0.00195,0c-0.41406,0 -0.75,0.33594 -0.75,0.75s0.33594,0.75 0.75,0.75z" fill="#ffffff" id="svg_5"/>
  </g>
 </g>

</svg>