<svg width="22" height="21" xmlns="http://www.w3.org/2000/svg" stroke-width="2" stroke-linejoin="round" stroke-linecap="round" stroke="currentColor" fill="none" class="feather feather-phone">

 <g>
  <title>Layer 1</title>
  <path stroke="#373737" fill="none" id="svg_1" d="m20.94375,15.45599l0,3a2,2 0 0 1 -2.18,2a19.79,19.79 0 0 1 -8.63,-3.07a19.5,19.5 0 0 1 -6,-6a19.79,19.79 0 0 1 -3.07,-8.67a2,2 0 0 1 1.99,-2.18l3,0a2,2 0 0 1 2,1.72a12.84,12.84 0 0 0 0.7,2.81a2,2 0 0 1 -0.45,2.11l-1.27,1.27a16,16 0 0 0 6,6l1.27,-1.27a2,2 0 0 1 2.11,-0.45a12.84,12.84 0 0 0 2.81,0.7a2,2 0 0 1 1.72,2.03z"/>
 </g>
</svg>