<svg xmlns="http://www.w3.org/2000/svg" width="25" height="20" version="1.1"><rect id="backgroundrect" width="100%" height="100%" x="0" y="0" fill="none" stroke="none"/>
 <title/>
 <desc/>

 <g style="" class="currentLayer">
  <title>Layer 1</title>
  <g id="TabBar-Icons" fill-rule="evenodd" fill="#0067aa" class="selected" fill-opacity="1">
   <g id="Hamburger-Round" fill="#0067aa">
    <path fill="#0067aa" id="Hamburger" d="m0,2c0,-1.10457 0.88976,-2 2.00359,-2l20.99282,0c1.10655,0 2.00359,0.88773 2.00359,2c0,1.10457 -0.88976,2 -2.00359,2l-20.99282,0c-1.10655,0 -2.00359,-0.88773 -2.00359,-2l0,0zm0,8c0,-1.10457 0.88976,-2 2.00359,-2l20.99282,0c1.10655,0 2.00359,0.88773 2.00359,2c0,1.10457 -0.88976,2 -2.00359,2l-20.99282,0c-1.10655,0 -2.00359,-0.88773 -2.00359,-2l0,0zm0,8c0,-1.10457 0.88976,-2 2.00359,-2l20.99282,0c1.10655,0 2.00359,0.88773 2.00359,2c0,1.10457 -0.88976,2 -2.00359,2l-20.99282,0c-1.10655,0 -2.00359,-0.88773 -2.00359,-2l0,0z"/>
   </g>
  </g>
 </g>
</svg>